<svg width="50" height="59" viewBox="0 0 50 59" fill="none" xmlns="http://www.w3.org/2000/svg">
<path d="M13.0202 8.07398V15.8185H20.3636C24.3747 15.8185 28.5709 15.9727 29.6817 16.127C32.7363 16.6207 36.3154 18.5028 38.8763 21.002C46.8059 28.7774 46.9911 40.4404 39.3083 48.2157C34.7109 52.8439 31.8106 53.8621 23.0479 53.8621C14.9949 53.893 12.9585 53.3684 9.74963 50.3138C7.71324 48.4009 6.47906 46.4879 5.64598 43.9887C4.50437 40.5947 4.93633 35.9665 6.60247 33.097C7.4664 31.6777 9.78049 29.2402 11.3541 28.1294L12.65 27.2655L12.8351 28.222C12.9277 28.7465 13.0202 33.5598 13.0202 38.9285V48.6785L20.1785 48.586C24.1278 48.5551 28.1389 48.37 29.0337 48.2157C34.9269 47.1358 39.5551 41.2426 39.5551 34.794C39.5551 28.7774 35.8217 23.6247 30.0211 21.6191C28.1698 20.9712 27.4601 20.9095 22.1223 20.9095C17.5558 20.9403 15.828 21.0329 14.2853 21.4648C7.74409 23.2236 2.19028 28.8082 0.524131 35.2568C-0.494069 39.1754 -0.000396063 44.2972 1.75831 48.0615C3.3936 51.4863 7.40469 55.4357 11.0147 57.1635C14.0384 58.5829 15.9205 58.8297 23.0479 58.7988C28.54 58.768 29.8976 58.6754 31.8723 58.1509C38.6295 56.3305 44.245 51.7023 47.423 45.2845C49.0892 41.9523 49.7063 39.6999 49.9531 36.1516C50.5085 28.006 46.0963 19.521 38.6603 14.43L36.5005 12.949L36.9942 11.8382C38.1358 9.15389 38.1358 6.71638 36.9325 4.43315C36.192 2.98298 33.8162 1.07 32.5203 0.884875C31.9032 0.792312 27.2442 0.638039 22.2149 0.514621L13.0202 0.329494V8.07398ZM29.7742 5.60562C32.0575 5.85245 32.6437 6.25356 32.9522 7.67287C33.0757 8.41338 32.9522 8.81449 32.3043 9.58585L31.4712 10.5732H24.8992H18.358L18.1421 9.61671C18.0495 9.09218 17.9569 7.88885 17.9569 6.99407V5.32793L22.832 5.35878C25.4854 5.35878 28.6018 5.45135 29.7742 5.60562ZM27.059 26.0313C29.5274 26.4941 30.9158 27.2346 32.3969 28.9316C35.3589 32.2948 35.3897 37.2624 32.4277 40.6255C30.2679 43.063 29.5274 43.3716 25.0843 43.495C22.9554 43.5567 20.4562 43.6493 19.5922 43.711L17.9569 43.8035V36.1825C17.9569 31.9862 18.0495 27.9134 18.1421 27.1112L18.358 25.6919H21.8138C23.6959 25.6919 26.0717 25.8462 27.059 26.0313Z" fill="currentColor"/>
</svg>
